<?xml version="1.0" standalone="no"?><svg xmlns="http://www.w3.org/2000/svg" viewBox="0 0 1440 320"><path fill="#000" fill-opacity="1" d="M0,320L16,298.7C32,277,64,235,96,186.7C128,139,160,85,192,69.3C224,53,256,75,288,96C320,117,352,139,384,133.3C416,128,448,96,480,90.7C512,85,544,107,576,138.7C608,171,640,213,672,218.7C704,224,736,192,768,186.7C800,181,832,203,864,186.7C896,171,928,117,960,112C992,107,1024,149,1056,186.7C1088,224,1120,256,1152,224C1184,192,1216,96,1248,53.3C1280,11,1312,21,1344,53.3C1376,85,1408,139,1424,165.3L1440,192L1440,0L1424,0C1408,0,1376,0,1344,0C1312,0,1280,0,1248,0C1216,0,1184,0,1152,0C1120,0,1088,0,1056,0C1024,0,992,0,960,0C928,0,896,0,864,0C832,0,800,0,768,0C736,0,704,0,672,0C640,0,608,0,576,0C544,0,512,0,480,0C448,0,416,0,384,0C352,0,320,0,288,0C256,0,224,0,192,0C160,0,128,0,96,0C64,0,32,0,16,0L0,0Z"></path></svg>